<svg id="Layer_1" data-name="Layer 1" xmlns="http://www.w3.org/2000/svg" viewBox="0 0 800 400" width="1600" height="800">
  <style>
    path, polygon, rect {
      fill: #000000;
    }
  </style>
  <polygon points="117.85 293.67 117.85 293.72 117.82 293.72 117.85 293.67"/>
  <polygon points="117.82 293.72 117.82 293.75 117.75 293.72 117.82 293.72"/>
  <rect x="8.44" y="341.42" width="783.35" height="7.51"/>
  <path d="M174.7,59.45,109,274.17,43.22,59.45H8.44v234.3h7.43V93.23L77.27,293.7v.05h33.48l0-.05L174.7,84.91V293.75h36V59.45ZM9.21,71.5,8.77,70l.44-.15Z"/>
  <polygon points="580.99 286.32 580.99 293.75 431.31 293.75 431.31 59.43 467.38 59.43 467.38 286.32 580.99 286.32"/>
  <path d="M791.79,173.88c0,70-41.43,111.72-95.76,118.51-11.88,1.36-17.32,1.36-29.88,1.36l-49.73-.15V59.3l51.09.14c12.56,0,18,0,29.88,1.36C751.72,67.25,791.79,102.91,791.79,173.88Zm-40.07,0c0-49.24-24.46-100.45-61.81-105.89-7.47-1.35-15.62-1.69-26.83-1.69l-11.78-.1v219l10.43.09c11.55,0,19.36,0,26.83-1.36C726.24,278.52,751.72,225.83,751.72,173.88Z"/>
  <polygon points="282.25 66.86 282.25 172.89 395.88 172.89 395.88 180.29 282.25 180.29 282.25 286.32 395.88 286.32 395.88 293.75 246.18 293.75 246.18 59.43 395.88 59.43 395.88 66.86 282.25 66.86"/>
</svg>
